<svg width="13" height="11" viewBox="0 0 13 11" fill="none" xmlns="http://www.w3.org/2000/svg">
<path d="M12.5639 9.38441L1.43015 0.717417C1.39961 0.693071 1.36455 0.674952 1.32698 0.664096C1.28941 0.65324 1.25006 0.649859 1.21118 0.654145C1.1723 0.658432 1.13465 0.670303 1.10037 0.689079C1.0661 0.707856 1.03587 0.733172 1.01142 0.76358L0.825237 0.995138C0.80073 1.02556 0.782486 1.06049 0.771552 1.09794C0.760617 1.13538 0.757205 1.17461 0.761511 1.21337C0.765817 1.25213 0.777756 1.28967 0.796646 1.32383C0.815536 1.35799 0.841005 1.38811 0.871596 1.41246L12.0054 10.0795C12.0359 10.1038 12.0709 10.1219 12.1085 10.1328C12.1461 10.1436 12.1854 10.147 12.2243 10.1427C12.2632 10.1384 12.3008 10.1266 12.3351 10.1078C12.3694 10.089 12.3996 10.0637 12.4241 10.0333L12.6103 9.80174C12.6348 9.77132 12.653 9.73639 12.6639 9.69894C12.6749 9.66149 12.6783 9.62226 12.674 9.5835C12.6697 9.54474 12.6577 9.50721 12.6389 9.47304C12.62 9.43888 12.5945 9.40876 12.5639 9.38441ZM6.28562 3.36781L8.79518 5.3215C8.75385 4.21025 7.84378 3.32202 6.71775 3.32202C6.5725 3.32229 6.42767 3.33764 6.28562 3.36781ZM7.14988 7.42925L4.64032 5.47556C4.68183 6.58663 5.5919 7.47485 6.71775 7.47485C6.86299 7.47454 7.0078 7.45926 7.14988 7.42925ZM6.71775 2.72876C8.55444 2.72876 10.2383 3.74843 11.1476 5.39844C10.9247 5.80452 10.6493 6.17974 10.3284 6.51451L11.0311 7.06142C11.4223 6.64469 11.7537 6.17609 12.016 5.66893C12.0586 5.58503 12.0807 5.49235 12.0807 5.39834C12.0807 5.30434 12.0586 5.21165 12.016 5.12776C11.0054 3.1661 9.0065 1.83887 6.71775 1.83887C6.03446 1.83887 5.38263 1.96864 4.76971 2.18759L5.63379 2.86039C5.98642 2.78067 6.34762 2.72876 6.71775 2.72876ZM6.71775 8.06812C4.88105 8.06812 3.1974 7.04845 2.28789 5.39844C2.51108 4.99236 2.78682 4.6172 3.10803 4.28255L2.40537 3.73564C2.01423 4.15231 1.68285 4.62085 1.42065 5.12795C1.37806 5.21184 1.35587 5.30453 1.35587 5.39853C1.35587 5.49253 1.37806 5.58522 1.42065 5.66911C2.43032 7.63077 4.42918 8.95801 6.71775 8.95801C7.40104 8.95801 8.05287 8.8273 8.66578 8.60928L7.80171 7.93667C7.44908 8.0162 7.08807 8.06812 6.71775 8.06812Z" fill="#444444"/>
</svg>
